<?xml version="1.0" encoding="utf-8"?>
<!-- Generator: Adobe Illustrator 25.0.0, SVG Export Plug-In . SVG Version: 6.00 Build 0)  -->
<svg version="1.1" id="Calque_1" xmlns="http://www.w3.org/2000/svg" xmlns:xlink="http://www.w3.org/1999/xlink" x="0px" y="0px"
	 viewBox="0 0 1080 1080" style="enable-background:new 0 0 1080 1080;" xml:space="preserve">
<style type="text/css">
	.st0{fill:#FFAB00;}
	.st1{fill:#430711;}
</style>
<g>
	<g>
		<path class="st0" d="M401.7,683.5v0.5H385v-0.5c3-3,3.7-5.4,0.5-14.9l-9.4-27.7H342c-3.5,6.3-5.9,12.2-5.9,18.1
			c0,13.3,9,19.9,20.2,24.5v0.5h-14c-5.9-5-9.4-11.4-9.4-19.6c0-16.2,15.1-34,25.6-50.1c1.9-3,4.1-9.3,0.2-12.2v-0.5h11.7l22.5,67
			C396.2,678.2,398.7,680.5,401.7,683.5z M375.7,640l-7.8-23.1c-1.5-4.5-2.7-7.3-4.1-9.5c-1.4,2.3-2.7,4.6-4.2,6.9
			c-5.7,8.9-12.4,17.5-17,25.7H375.7z"/>
		<path class="st0" d="M402.3,684.5h-17.8v-1.3l0.2-0.2c2.7-2.7,3.5-4.8,0.3-14.3l-9.2-27.3h-33.3c-3.9,7.1-5.7,12.5-5.7,17.5
			c0,14,10.6,20.2,19.9,24l0.4,0.1v1.4h-14.7l-0.2-0.1c-6.4-5.4-9.6-12.1-9.6-20c0-13.2,9.7-27.2,19.1-40.7c2.3-3.4,4.5-6.5,6.6-9.7
			c2-3,3.8-8.8,0.4-11.5l-0.2-0.2V601h12.6l22.7,67.4c3.1,9.2,5.5,11.6,8.3,14.4l0.5,0.5V684.5z M385.9,683.4h14.9
			c-2.8-2.8-5.3-5.4-8.3-14.6l-22.4-66.6h-10.3c2.5,2.5,2,6.6,0.6,9.8c1-1.6,2-3.2,2.9-4.8l0.5-0.8l0.5,0.7c1.4,2.3,2.7,5.2,4.2,9.6
			l8.1,24l9.4,27.7C389,677.4,388.7,680.3,385.9,683.4z M342.5,683.4h12c-9.2-4-19.1-10.4-19.1-24.4c0-4.1,1.1-8.3,3.5-13.5
			c-3.3,6.4-5.4,12.7-5.4,18.8C333.5,671.8,336.6,678.2,342.5,683.4z M343.5,639.5h31.4l-7.5-22.4c-1.3-3.8-2.4-6.5-3.6-8.6
			c-1.2,2-2.5,4.1-3.8,6.1c-2.3,3.6-4.8,7.2-7.2,10.6C349.5,630.2,346.2,634.8,343.5,639.5z"/>
	</g>
	<g>
		<path class="st0" d="M446.3,604.4V604l11.7-4.2V672c0,6.2,0.5,8.9,3.4,11.4v0.5h-10.5v-10.9c-6.4,9.3-15,12.7-21,12.7
			c-16.2,0-28.1-12.8-28.1-30.4c0-17.6,11.9-30.4,30.4-30.4c10.4,0,14.2,3.9,18.8,4.2v-15.2C450.9,609.6,450.7,606,446.3,604.4z
			 M429.8,684.8c5.9,0,14.6-3.4,21-13.2V641c0-11.3-11.7-15.2-18.8-15.2c-14.3,0-23.1,12.5-23.1,29.5
			C409,672.4,417.8,684.8,429.8,684.8z"/>
		<path class="st0" d="M429.8,686.3c-16.6,0-28.7-13-28.7-31c0-18.2,12.7-31,31-31c6.6,0,10.6,1.5,13.8,2.8c1.6,0.6,3,1.2,4.4,1.4
			v-14.6c0-4.6-0.3-7.6-4.2-9l-0.4-0.1v-1.2l12.8-4.6V672c0,6.2,0.5,8.7,3.2,11l0.2,0.2v1.3h-11.6v-9.7
			C443.8,683.3,435.6,686.3,429.8,686.3z M427,625.8c-15,2.1-24.8,13.4-24.8,29.5c0,15.7,9.6,27.5,23.3,29.6
			c-10.1-2.5-17.1-14.2-17.1-29.6C408.4,639.6,415.7,628.4,427,625.8z M432.1,626.4c-13.5,0-22.5,11.6-22.5,28.9
			c0,16.8,8.5,28.9,20.3,28.9c5.8,0,14.2-3.4,20.5-12.8V641C450.3,630.3,439.4,626.4,432.1,626.4z M451.4,683.4h9
			c-2.7-2.6-3-5.7-3-11.3v-71.5l-10.1,3.7c4.2,1.9,4.2,5.9,4.2,9.7v15.8l-0.6,0c-1.8-0.1-3.4-0.8-5.3-1.5c-2.1-0.8-4.6-1.8-8.1-2.3
			c6.8,1.5,14,6.1,14,15.2V683.4z"/>
	</g>
	<g>
		<path class="st0" d="M468.2,655.3c0-17.6,12.8-30.4,30.4-30.4c17.3,0,22.6,13.5,22.6,20.6v0.9h-45.7c-0.2,1.6-0.3,3.3-0.3,5
			c0,17.4,10.9,30.1,27.7,30.1c12.9,0,18.6-8.6,20.1-12.1l0.7,0.3c-2.1,7-13,16-25,16C481,685.8,468.2,673,468.2,655.3z
			 M506.8,645.5c4.3,0,6.6-2.3,6.6-5.6c0-8-6.9-13.8-16.2-13.8c-10.9,0-19.3,7.9-21.4,19.4H506.8z M501.2,599.6l4.6,5.3l-14,12.2
			l-0.3-0.3L501.2,599.6z"/>
		<path class="st0" d="M498.7,686.3c-18,0-31-13-31-31c0-18,13-31,31-31c16.9,0,23.2,13,23.2,21.1v1.5h-45.8
			c-0.2,1.4-0.3,2.9-0.3,4.5c0,17.7,10.9,29.5,27.1,29.5c14.3,0,19.1-10.6,19.6-11.8l0.2-0.6l1.6,0.8l-0.1,0.5
			C522,677.5,510.3,686.3,498.7,686.3z M491.6,626.2c-13.5,2.9-22.8,14.3-22.8,29.1c0,17.3,12.6,29.9,29.9,29.9
			c9.3,0,17.7-5.5,21.9-10.9c-3,3.6-8.5,7.8-17.7,7.8c-16.6,0-28.2-12.6-28.2-30.6c0-1.8,0.1-3.5,0.3-5.1l0.1-0.5h0.1l0.1-0.5
			C477,635.6,483.3,628.5,491.6,626.2z M509,645.9h11.8v-0.4c0-7.7-6-20-22.1-20c-0.4,0-0.8,0-1.1,0c9.6,0.1,16.5,6.2,16.5,14.4
			C514,643,512.1,645.2,509,645.9z M476.5,644.9h30.3c3.8,0,6.1-1.9,6.1-5c0-7.7-6.6-13.3-15.7-13.3
			C486.9,626.6,478.7,634,476.5,644.9z M491.8,617.9l-1-1l10.3-18.2l5.5,6.3L491.8,617.9z M501.3,600.6l-8.4,14.8l12.1-10.6
			L501.3,600.6z"/>
	</g>
	<g>
		<path class="st0" d="M523.7,627.2v-0.5h14.4v0.5c-3,1.9-1.9,5.4,0.5,11.4l13.3,33.4c1.3,3.1,2.3,5.4,3.4,7.3l10.2-25l-6.3-15.7
			c-2.4-6.1-4.3-9.5-7.3-11.4v-0.5h14.4v0.5c-3,1.9-1.9,5.4,0.5,11.4l3.1,7.7l3.1-7.7c2.4-6.1,3.2-9.5,0.2-11.4v-0.5h7.9v0.5
			c-3,1.9-4.7,5.4-7.1,11.4l-3.7,8.9L580,672c1.3,3.1,2.3,5.4,3.4,7.3l9.7-24c5.7-14.1,13-30.4,32.3-30.4c7.9,0,16.1,3.8,21.5,17.2
			l11.9,30c2.4,6.1,4.3,9.5,7.3,11.4v0.5h-14.6v-0.5c2.9-2.4,2.4-5,0.2-10.5l-4.9-12.4c-2.2,15.2-14.2,25.2-27.8,25.2
			c-8.3,0-14.4-4.8-14.4-11.4c0-9.3,13.8-13.6,23.8-23.8c8.2-8.3,5.5-21.7-6.6-21.7c-16.7,0-22.8,14.8-27.6,26.5l-6.7,16.7
			c-1.5,3.5-3.1,9.5-0.1,11.4v0.5h-10.1l-11.3-28.4l-6.6,16.5c-1.4,3.5-3.1,9.5-0.1,11.4v0.5h-10.1L531,638.6
			C528.6,632.6,526.7,629.1,523.7,627.2z M623.2,682.7c11.1,0,21.6-9.4,22.8-23.9l-6.6-16.7c-2.5-6.3-5.7-9.7-9.3-11.4
			c4.8,4.3,5.9,13.6-1.4,20.8c-8.3,8.2-17,11.6-17,20.9C611.7,678,616.6,682.7,623.2,682.7z"/>
		<path class="st0" d="M619,686.3c-8.7,0-15-5-15-12c0-6.1,5.7-10.2,12.3-14.8c3.7-2.6,8-5.6,11.6-9.4c4.2-4.2,5.7-10.2,3.7-14.8
			c-1.6-3.8-5.2-6-10-6c-16.4,0-22.3,14.5-27,26.2l-6.7,16.7c-1.7,4-2.7,9.2-0.3,10.8l0.3,0.2v1.3h-11l-10.9-27.4l-6.1,15.2
			c-1,2.6-3.1,8.9-0.3,10.8l0.3,0.2v1.3h-11l-18.2-45.6c-2.5-6.4-4.5-9.5-7.1-11.2l-0.3-0.2v-1.3h15.5v1.3l-0.3,0.2
			c-2.6,1.7-1.7,4.7,0.7,10.8l13.3,33.4c1.1,2.8,2,4.7,2.8,6.2l9.7-23.8l-6.2-15.5c-2.6-6.5-4.4-9.4-7.1-11.2l-0.3-0.2v-1.3h15.5
			v1.3l-0.3,0.2c-2.6,1.7-1.7,4.7,0.7,10.8l2.6,6.4l2.6-6.4c2.4-6.1,3-9.1,0.4-10.8l-0.3-0.2v-1.3h9v1.3l-0.3,0.2
			c-2.8,1.8-4.5,5.1-6.9,11.2l-3.6,8.7l9.6,24.3c1.1,2.8,2,4.7,2.8,6.2l9.3-22.9c5.3-13,12.5-30.8,32.8-30.8c9.9,0,17.4,5.9,22,17.5
			l11.9,30c2.5,6.4,4.5,9.5,7.1,11.2l0.3,0.2v1.3h-15.8v-1.3l0.2-0.2c2.5-2.1,2.2-4.4,0.1-9.9l-4.2-10.5
			C644.1,676.5,632.6,686.3,619,686.3z M619.3,658.8c-0.8,0.6-1.6,1.1-2.3,1.6c-6.4,4.5-11.8,8.4-11.8,13.9
			c0,6.3,5.8,10.9,13.8,10.9c7.2,0,13.8-2.9,18.8-7.7c-4,3.6-9,5.7-14.5,5.7c-6.8,0-12.1-4.8-12.1-10.9
			C611.1,666.3,614.6,662.7,619.3,658.8z M652.4,683.4H665c-2.8-2.2-4.6-5.8-6.7-11.1l-11.9-30c-4.5-11.1-11.5-16.8-21-16.8
			c-10.4,0-17.3,4.8-22.4,11.9c4.3-5.3,10.1-9.1,18.8-9.1c2.6,0,4.9,0.6,6.8,1.8l-1.8-1.6l3.5,1.7c4,2,7.2,5.8,9.5,11.7l6.6,16.7
			l0-0.1l5.7,14.3C654.3,678.1,654.9,680.9,652.4,683.4z M577.6,683.4h8.7c-1.8-1.9-1.3-5.5-0.5-8.3l-2.3,5.6l-0.6-1
			c-1.1-1.8-2.1-3.9-3.5-7.4l-9.8-24.7l0-0.1l-3.5-8.6c-2.2-5.6-3.4-9.3-1-11.5h-12.2c2.8,2.2,4.6,5.8,6.7,11.1l6.4,15.9l0,0.1
			L577.6,683.4z M549.5,683.4h8.7c-1.7-1.9-1.4-5.3-0.4-8.6l-2.4,5.9l-0.6-1c-1.1-1.8-2.1-3.9-3.5-7.4L538,638.9
			c-2.2-5.6-3.4-9.3-1-11.5h-12.2c2.8,2.2,4.6,5.8,6.7,11.1L549.5,683.4z M632.7,633c1.1,1.9,1.7,4.2,1.8,6.5
			c0.1,4.4-1.8,8.8-5.4,12.3c-2.4,2.4-4.9,4.4-7,6.1c-5.5,4.5-9.8,8-9.8,14.4c0,5.5,4.8,9.7,11,9.7c11.6,0,21.1-10,22.2-23.3
			l-6.6-16.6C637.2,638.1,635.1,635.1,632.7,633z M574.2,627.3c1.9,1.7,1.7,4.3,0.7,7.6c1.6-3.7,3-6,5.1-7.6H574.2z"/>
	</g>
	<g>
		<path class="st0" d="M668.4,604.4V604l11.7-4.2v68.8c0,9.6,1.6,12.4,4.6,14.9v0.5h-16.2v-0.5c3-2.5,4.6-5.3,4.6-14.9v-54.7
			C672.9,609.6,672.8,606,668.4,604.4z"/>
		<path class="st0" d="M685.2,684.5h-17.4v-1.3l0.2-0.2c3-2.5,4.4-5.3,4.4-14.4v-54.7c0-4.6-0.3-7.6-4.2-9l-0.4-0.1v-1.2l12.8-4.6
			v69.7c0,9.1,1.4,11.9,4.4,14.4l0.2,0.2V684.5z M669.3,683.4h14.3c-2.8-2.6-4.2-5.8-4.2-14.8v-68l-10.1,3.7
			c4.2,1.9,4.2,5.9,4.2,9.7v54.7C673.5,677.6,672.2,680.8,669.3,683.4z"/>
	</g>
	<g>
		<path class="st0" d="M691.5,655.3c0-17.6,12.8-30.4,30.4-30.4c17.3,0,22.6,13.5,22.6,20.6v0.9h-45.7c-0.2,1.6-0.3,3.3-0.3,5
			c0,17.4,10.9,30.1,27.7,30.1c12.9,0,18.6-8.6,20.1-12.1l0.7,0.3c-2.1,7-13,16-25,16C704.3,685.8,691.5,673,691.5,655.3z
			 M730,645.5c4.3,0,6.6-2.3,6.6-5.6c0-8-6.9-13.8-16.2-13.8c-10.9,0-19.3,7.9-21.4,19.4H730z M724.4,599.6l4.6,5.3l-14,12.2
			l-0.3-0.3L724.4,599.6z"/>
		<path class="st0" d="M721.9,686.3c-18,0-31-13-31-31c0-18,13-31,31-31c16.9,0,23.2,13,23.2,21.1v1.5h-45.8
			c-0.2,1.4-0.3,2.9-0.3,4.5c0,17.7,10.9,29.5,27.1,29.5c14.3,0,19.1-10.6,19.6-11.8l0.2-0.6l1.6,0.8l-0.1,0.5
			C745.2,677.5,733.6,686.3,721.9,686.3z M714.8,626.2c-13.5,2.9-22.8,14.3-22.8,29.1c0,17.3,12.6,29.9,29.9,29.9
			c9.3,0,17.7-5.5,21.9-10.9c-3,3.6-8.5,7.8-17.7,7.8c-16.6,0-28.2-12.6-28.2-30.6c0-1.8,0.1-3.5,0.3-5.1l0.1-0.5h0.1l0.1-0.5
			C700.2,635.6,706.5,628.5,714.8,626.2z M732.2,645.9H744v-0.4c0-7.7-6-20-22.1-20c-0.4,0-0.8,0-1.1,0c9.6,0.1,16.5,6.2,16.5,14.4
			C737.2,643,735.3,645.2,732.2,645.9z M699.7,644.9H730c3.8,0,6.1-1.9,6.1-5c0-7.7-6.6-13.3-15.7-13.3
			C710.2,626.6,701.9,634,699.7,644.9z M715,617.9l-1-1l10.3-18.2l5.5,6.3L715,617.9z M724.5,600.6l-8.4,14.8l12.1-10.6L724.5,600.6
			z"/>
	</g>
</g>
<circle class="st0" cx="593" cy="427.5" r="33.9"/>
<path class="st1" d="M635.7,496.9c-0.3-0.6-0.6-1.2-1-1.7c-3.3-4-6.6-8-9.9-12c-0.5-0.6-1-1.1-1.4-1.7c-0.3-0.4-0.4-0.9-0.1-1.3
	c1.1-1.8,1-2.7-0.5-4.5c-2.3-2.8-4.7-5.6-7.2-8.2c-3.6-3.6-7.5-7-11.2-10.6c-0.4-0.4-0.9-1.2-0.7-1.6c0.7-1.8,0-3.1-1.3-4.2
	c-3.4-2.9-6.8-6-10.4-8.7c-10.5-8-21.7-15-33.1-21.7c-0.8-0.5-1.7-1-2.5-1.5c-1.1-0.7-2.3-1.4-3.5-2c-1.2-0.7-1.9-1.5-1.8-3
	c0.1-3,0.1-6.1,0-9.1c-0.1-3.9-2.8-6.7-6.7-6.8c-2.8-0.1-5.6-0.1-8.5,0c-3.8,0.1-6.6,2.9-6.7,6.8c0,2.8-0.1,5.5,0,8.3
	c0.1,2-0.7,3-2.3,4c-1.8,1.1-3.5,2.2-5.3,3.3c-8.6,5.3-17.2,10.7-25.7,16.2c-6.3,4.1-12.2,8.9-17.5,14.4c-0.7,0.7-1.4,2.2-1.2,3
	c0.5,1.7-0.2,2.5-1.3,3.4c-0.9,0.8-1.8,1.6-2.6,2.4c-5,5.2-10,10.3-14.9,15.5c-1.6,1.7-1.6,2.6-0.6,4.5c0.2,0.4,0.2,1-0.2,1.4
	c-0.8,0.8-1.6,1.6-2.3,2.5c-3.5,4.1-7.1,8.2-10.5,12.3c-0.9,1.1-1.2,2.4-0.6,3.7c0.7,1.4,2,1.4,3.3,1.4c7.6,0,15.2,0,22.9,0
	c1.4,0,1.9,0.4,1.9,1.9c0,1.6,0,3.2,0,4.8c0,0.4,0,0.8,0,1.3v11.5c0,1.8,0,3.7,0,5.5c0,0.3,0,0.5,0,0.7v8.1c0.1,0.2,0.1,0.5,0,0.9
	c0,0.3,0,0.5,0,0.8v5.7c0,0.2,0,0.4,0,0.7c0,0.1,0,0.2,0,0.3v18.8c0,2.3,1.9,4.2,4.2,4.2h127.3c2.3,0,4.2-1.9,4.2-4.2V527
	c0-0.2,0-0.3,0-0.5c0-2.3,0-4.6,0-6.8v-15.7c0-2.4,0-2.4,2.5-2.4c7.6,0,15.2,0,22.7,0C635.8,501.4,637,499.4,635.7,496.9z
	 M534.6,406c0-1.3,0.6-2,1.9-2c2.3,0,4.6,0,7,0c1.3,0,1.9,0.7,1.8,2c0,2.4,0,4.7,0,7.1c0,1.2-0.4,1.6-1.6,1.5c-1.3-0.1-2.5,0-3.8,0
	c-1.2,0-2.3-0.1-3.5,0c-1.3,0.1-1.9-0.3-1.9-1.8C534.7,410.6,534.7,408.3,534.6,406z M532.5,420.8c0,0,0.1,0,0.1-0.1
	c0,0,0,0,0.1,0.1h14.5c0.2,0,0.4,0.1,0.6,0.2c1.3,0.7,2.6,1.5,3.8,2.2c14.5,8.5,28.5,17.1,41.5,27.4c-0.1,0.2-0.1,0.4-0.2,0.5
	c-0.5,0-1.1,0.1-1.6,0.1c-5.2,0-10.5,0-15.7,0c-0.2,0-0.4,0-0.5,0h-24.3c-1.7,0-3.4,0-5.1,0c-0.2,0-0.3,0-0.5,0h-8
	c-0.1,0-0.2,0-0.2,0c-1.8,0-3.6,0-5.4,0h-8.1c-1.8,0-3.6,0-5.4,0l0,0l-15.6,0c-0.2,0.1-0.5,0.1-0.7,0.1c-1.2,0-2.5-0.1-3.7-0.1
	l-0.4,0c-2.7,0-5.4,0-8,0h-1.8c-0.1-0.2-0.2-0.4-0.2-0.6C501.3,439,516.8,429.8,532.5,420.8z M468.1,473.1
	c5.4-5.2,10.9-10.4,16.3-15.5c0.3-0.3,1-0.6,1.4-0.6c2.7,0,5.4,0,8.1,0v0h45l2.8,0h43.9c2.9,0,5.8,0,8.6,0c0.7,0,1.5,0.2,2,0.6
	c5.8,5.4,11.5,10.8,17.2,16.3c0.4,0.4,0.8,0.9,1.4,1.6c-0.9,0.1-1.5,0.2-2.1,0.2c-6.6,0-13.1,0-19.7,0c-0.3,0-0.6,0-0.8-0.1h-8.2
	c-0.2,0-0.4,0-0.5,0c-5.8,0-11.7,0-17.5,0c-1.9,0-3.9,0-5.8,0c-0.2,0-0.4,0-0.5,0c0,0-0.1,0-0.1,0h-39.7c-0.1,0-0.1,0-0.2,0
	c-0.6,0.1-1.2,0.1-1.9,0.1c-1.2,0-2.5-0.1-3.7-0.1c-0.7,0-1.3,0-2,0c-1.3,0-2.7,0-4,0c-2.9,0-5.7,0-8.6,0h-2.7c-0.2,0-0.4,0-0.6,0
	h-13.8c-4.9,0-9.8,0-14.8,0c-0.4,0-0.7-0.2-1.3-0.3C466.9,474.4,467.5,473.7,468.1,473.1z M477.9,503.1c0-1.3,0.5-1.7,1.7-1.7
	c13.2,0,26.4,0,39.6,0c1.2,0,1.8,0.3,1.8,1.7c0,0.3,0,0.6,0,0.9c-0.1,4.8-0.1,9.7,0,14.5c0,1.4-0.5,1.7-1.7,1.7
	c-6.6-0.1-13.3,0-19.9,0c-6.5,0-13-0.1-19.5,0c-1.6,0-1.9-0.5-1.9-2c0.1-4.7,0.1-9.4,0-14.2C477.9,503.7,477.9,503.4,477.9,503.1z
	 M553.4,504c-0.1,12.9-0.1,25.8,0,38.7c0,1.5-0.5,1.9-1.9,1.9c-7.7-0.1-15.4-0.1-23,0c-1.4,0-1.9-0.4-1.9-1.9c0.1-6.6,0-13.2,0-19.7
	c0-6.3,0-12.6,0-19v-0.6c0-1.4,0.3-2.1,1.9-2c7.7,0.1,15.3,0.1,23,0c1.4,0,1.9,0.4,1.9,1.9V504z M511.5,528.2
	c0.5-1.1,0.6-1.2,1.1-2.3h1.7c1.8,0,3.5-0.1,5.3,0c0.4,0.1,1.3,0.7,1.3,1c0.1,3.9,0,7.7,0,11.6c0,0.1-0.1,0.1-0.4,0.4
	C517.4,535.3,514.4,531.8,511.5,528.2z M517.2,544c-0.1,0.1-0.2,0.3-0.2,0.4h-16.1c-0.8,0-1.4-0.8-1.1-1.5c1.3-4,2.6-7.9,4-12.1
	c0.3-0.9,1.4-1.1,2-0.4C509.8,535.1,513.5,539.6,517.2,544z M482.8,527.9c-0.6-0.8-0.1-1.9,0.9-1.9h14.1c0.8,0,1.4,0.8,1.1,1.5
	c-1.3,4-2.6,7.9-4,12.1c-0.3,0.9-1.4,1.1-2,0.4C489.5,535.9,486.2,532,482.8,527.9z M487.3,542.2c-0.5,1.1-0.6,1.3-1.1,2.4
	c-2.4,0-4.9,0-7.3-0.1c-0.3,0-0.9-0.6-0.9-1c0-2.8,0-5.7,0-8.5c1.3-0.5,1.3-0.5,2.6-0.9C482.7,536.8,485,539.5,487.3,542.2z
	 M602.1,559.3c0,1.1-0.4,1.6-1.6,1.5c-0.4,0-0.9,0-1.3,0H480.7c-0.5,0-1.1,0-1.7,0c-0.9,0-1.2-0.4-1.2-1.3c0-2.6,0.1-5.3,0-8
	c0-1,0.4-1.4,1.4-1.4c0.6,0,1.2,0,1.8,0h118.5c2.6,0,2.6,0,2.6,2.7C602.1,555,602.1,557.2,602.1,559.3z M559.3,539.2
	c-0.1-0.9-0.2-1.3-0.2-1.7c0-3.3,0-6.6,0-9.9c0-1.4,0.5-1.8,1.8-1.8c2.9,0.1,5.9,0,8.9,0c0.1,0.2,0.2,0.3,0.3,0.5
	C566.6,530.5,563.1,534.7,559.3,539.2z M574.1,530.4c0.6-0.7,1.7-0.5,2,0.4c1.4,4.1,2.7,8,4,12.1c0.3,0.8-0.3,1.5-1.1,1.5H565
	c-1,0-1.5-1.2-0.9-1.9C567.5,538.4,570.7,534.5,574.1,530.4z M582.1,526h14.2c1,0,1.5,1.1,0.9,1.9c-3.4,4.1-6.7,8-10.1,12.1
	c-0.6,0.7-1.7,0.5-2-0.4c-1.4-4.1-2.7-8.1-4-12.1C580.8,526.8,581.4,526,582.1,526z M602.1,543.2c0,0.5-0.5,1.3-0.8,1.3
	c-2.5,0.1-4.9,0.1-7.4,0.1c-0.5-1.1-0.6-1.3-1.1-2.4c2.3-2.7,4.5-5.4,6.8-8.1c1.3,0.5,1.3,0.5,2.5,0.9c0,1.4,0,2.7,0,4.1
	C602.1,540.4,602.1,541.8,602.1,543.2z M602,519.6c0,0.1-0.1,0.2-0.3,0.5h-1.6c-13,0-26,0-38.9,0c-1.7,0-2.2-0.4-2.2-2.1
	c0.1-4.7,0.1-9.4,0-14.1c0-0.3,0-0.6,0-0.8c0-1.3,0.4-1.7,1.7-1.7c13.3,0,26.5,0,39.7,0c0.8,0,1.6-0.1,1.6,1.1c0,0.5,0,1,0,1.4
	C602.1,509.2,602,514.4,602,519.6z M625.9,495.9c-8.6,0-17.2,0-25.8,0c-0.2,0-0.5,0-0.7,0h-10c-0.1,0-0.3,0-0.4,0
	c-3.4,0-6.8,0-10.3,0s-6.8,0-10.3,0c-0.2,0-0.4,0-0.6,0h-8.2c-0.1,0-0.2,0-0.3,0c-2.7,0-5.4,0-8,0c-2.2,0-4.5,0-6.7,0
	c-0.2,0-0.4,0-0.5,0h-7.8c-0.1,0-0.1,0-0.2,0c-1.3,0-2.6,0-4,0c-2,0-4,0-6,0h-48.8c-8,0-16,0-23.9,0c-0.2,0-0.3-0.1-0.7-0.2
	c0.5-0.6,0.8-1.2,1.3-1.7c3.7-4,7.4-8.1,11.1-12.1c0.4-0.4,1-0.7,1.6-0.7c4.9,0,9.9,0,14.8,0h21.3c0.6-0.1,1.3-0.1,2.1-0.1
	c0.3,0,0.6,0.1,1,0.1c2.9,0.1,5.7,0,8.6,0h8.8c0.2,0,0.4,0,0.6,0c1,0,2.1,0,3.1,0c2,0,4,0,6,0c0.9,0,1.9,0,2.8,0c0.1,0,0.2,0,0.3,0
	h8.1c0.2,0,0.3,0,0.5,0c1.5,0,3.1,0,4.6,0H571c2.2,0,4.4,0,6.6,0c0.2,0,0.4,0,0.6,0h21.5c4.7,0,9.4,0,14,0c1.2,0,2,0.4,2.8,1.4
	c3.2,3.7,6.4,7.3,9.6,10.9c0.6,0.6,1,1.4,1.8,2.3C627,495.8,626.4,495.9,625.9,495.9z"/>
</svg>
